<?xml version="1.0" encoding="utf-8"?><svg xmlns="http://www.w3.org/2000/svg" xmlns:xlink="http://www.w3.org/1999/xlink" width="1692" height="861" preserveAspectRatio="xMidYMid" viewBox="0 0 1692 861" style="z-index:1;display:block;animation-play-state:paused" ><g transform="translate(846,430.5) scale(1,1) translate(-846,-430.5)" style="animation-play-state:paused" ><linearGradient id="lg-0.5035363231296903" x1="0" x2="1" y1="0" y2="0" style="animation-play-state:paused" ><stop stop-color="#d554e5" offset="0" style="animation-play-state:paused" ></stop>

  
<stop stop-color="#5ed0fc" offset="1" style="animation-play-state:paused" ></stop></linearGradient>
<path d="M 1373 431 C 1373 586 1136 822.999 989 870.999 C 842 918.999 521 858 430 733 C 339 608 289 217 380 91.9998 C 471 -33.0004 835 -36.0002 982 11.9999 C 1129 60 1373 276 1373 431" fill="url(#lg-0.5035363231296903)" opacity="0.4" style="opacity:0.4;animation-play-state:paused" ></path>
<path d="M 1346 431 C 1346 590 1130 792 979 841 C 828 890 571.999 825 478.999 697 C 385.999 569 326 250 419 121 C 512 -7.99975 829 -30.9994 980 18.0006 C 1131 67.0005 1346 272 1346 431" fill="url(#lg-0.5035363231296903)" opacity="0.4" style="opacity:0.4;animation-play-state:paused" ></path>
<path d="M 1450 431 C 1450 608 1148 789 980 844 C 812 899 507 895 403 752 C 299 609 231 202 335 59.0003 C 439 -83.9996 841 -126 1009 -70.9996 C 1177 -15.9997 1450 254 1450 431" fill="url(#lg-0.5035363231296903)" opacity="0.4" style="opacity:0.4;animation-play-state:paused" ></path></g></svg>